# xmcd CD database file
#
# Track frame offsets:
#	183
#	15478
#	33563
#	54016
#	76108
#	100901
#	118141
#	139063
#	158462
#	181643
#	198863
#	221674
#	246691
#	271128
#
# Disc length: 4027 seconds
#
# Revision: 0
# Processed by: cddbd v1.5.2PL0 Copyright (c) Steve Scherf et al.
# Submitted via: CDex 1.70beta2
#
DISCID=b00fb90e
DTITLE=Steve SHEHAN - ROADS
DYEAR=2002
DGENRE=Jazz
TTITLE0=Everglades rites
TTITLE1=Kites
TTITLE2=Free horizons
TTITLE3=Sunset in L.A
TTITLE4=Where are you?
TTITLE5=Miami bay
TTITLE6=Infinite valleys
TTITLE7=West coast
TTITLE8=Bluejazz evening
TTITLE9=Cherokee trail
TTITLE10=Late night blues
TTITLE11=Malibu promenade
TTITLE12=Free horizons (remix)
TTITLE13=Everglades rites (remix)
EXTD=YEAR: 2002
EXTT0=
EXTT1=
EXTT2=
EXTT3=
EXTT4=
EXTT5=
EXTT6=
EXTT7=
EXTT8=
EXTT9=
EXTT10=
EXTT11=
EXTT12=
EXTT13=
PLAYORDER=
